JUST TEENS PORN AMAZING SEX-SILVERDUST{HKRG}
Format                           : Windows Media
File size                        : 459 MiB
Duration                         : 20mn 38s
Overall bit rate mode            : Variable
Overall bit rate                 : 3 108 Kbps
Maximum Overall bit rate         : 6 122 Kbps
Encoded date                     : UTC 2008-03-28 00:55:11.355

Video
ID                               : 2
Format                           : VC-1
Format profile                   : MP@HL
Codec ID                         : WMV3
Codec ID/Info                    : Windows Media Video 9
Codec ID/Hint                    : WMV3
Description of the codec         : Windows Media Video 9 - Professional
Duration                         : 20mn 38s
Bit rate mode                    : Variable
Bit rate                         : 3 000 Kbps
Width                            : 1 280 pixels
Height                           : 720 pixels
Display aspect ratio             : 1.897
Frame rate                       : 25.000 fps
Bit depth                        : 8 bits
Scan type                        : Progressive
Compression mode                 : Lossy
Bits/(Pixel*Frame)               : 0.130
Stream size                      : 443 MiB (97%)

Audio
ID                               : 1
Format                           : WMA
Format version                   : Version 2
Codec ID                         : 161
Codec ID/Info                    : Windows Media Audio
Description of the codec         : Windows Media Audio 9.2 -  96 kbps, 44 kHz, stereo 2-pass CBR
Duration                         : 20mn 38s
Bit rate mode                    : Constant
Bit rate                         : 96.0 Kbps
Channel(s)                       : 2 channels
Sampling rate                    : 44.1 KHz
Bit depth                        : 16 bits
Stream size                      : 14.2 MiB (3%) 
http://img1.immage.de/11039ddimage3699593.jpg 
http://img1.immage.de/110324a1236image3705687.jpg
[img]http://img1.immage.de/11039ddimage3699593.jpg[/img]


[img]http://img1.immage.de/110324a1236image3705687.jpg[/img]
 
http://www.leetleech.org/images/04532010743940157897.jpg
    	http://www.leetleech.org/images/76095717912880926275.png
    	http://www.leetleech.org/images/69650992834664187757.png
    	http://www.leetleech.org/images/12372358118747015178.png
[URL=http://www.leetleech.org/][IMG]http://www.leetleech.org/images/04532010743940157897.jpg[/IMG][/URL]
        [URL=http://www.leetleech.org/][IMG]http://www.leetleech.org/images/76095717912880926275.png[/IMG][/URL]
        [URL=http://www.leetleech.org/][IMG]http://www.leetleech.org/images/69650992834664187757.png[/IMG][/URL]
        [URL=http://www.leetleech.org/][IMG]http://www.leetleech.org/images/12372358118747015178.png[/IMG][/URL]
NJOI